<svg xmlns="http://www.w3.org/2000/svg" viewBox="0 0 24 24" width="24" height="24" color="currentColor" fill="none">
    <path fill-rule="evenodd" clip-rule="evenodd" d="M12.05 2.07275H11.95C9.88001 2.07275 8.26001 2.07267 6.98001 2.23267C5.67001 2.38267 4.62999 2.71288 3.76999 3.45288C3.53999 3.64288 3.33 3.86277 3.13 4.09277C2.4 4.94277 2.07 5.99273 1.91 7.30273C1.75 8.57273 1.75 10.2027 1.75 12.2727V12.3728C1.75 14.4428 1.75 16.0728 1.91 17.3428C2.07 18.6528 2.4 19.7027 3.13 20.5527C3.33 20.7827 3.53999 21.0029 3.76999 21.1929C4.62999 21.9329 5.67001 22.2628 6.98001 22.4128C8.26001 22.5728 9.88001 22.5728 11.95 22.5728H12.05C14.12 22.5728 15.74 22.5728 17.02 22.4128C18.33 22.2628 19.37 21.9329 20.23 21.1929C20.46 21.0029 20.67 20.7827 20.87 20.5527C21.6 19.7027 21.93 18.6528 22.09 17.3428C22.25 16.0728 22.25 14.4428 22.25 12.3728V12.2727C22.25 10.2027 22.25 8.57273 22.09 7.30273C21.93 5.99273 21.6 4.94277 20.87 4.09277C20.67 3.86277 20.46 3.64288 20.23 3.45288C19.37 2.71288 18.33 2.38267 17.02 2.23267C15.74 2.07267 14.12 2.07275 12.05 2.07275ZM4.73999 4.59277C5.27999 4.12277 6 3.86289 7.16 3.71289C8.34 3.57289 9.87 3.57275 12 3.57275C14.13 3.57275 15.67 3.57289 16.84 3.71289C18 3.86289 18.71 4.12277 19.26 4.59277C19.43 4.73277 19.59 4.89274 19.73 5.06274C20.19 5.60274 20.46 6.32267 20.6 7.48267C20.74 8.65267 20.74 10.1928 20.74 12.3228C20.74 14.4528 20.74 15.9928 20.6 17.1628C20.46 18.3228 20.19 19.0428 19.73 19.5828C19.58 19.7528 19.43 19.9127 19.26 20.0527C18.72 20.5227 18 20.7829 16.84 20.9329C15.66 21.0729 14.13 21.0728 12 21.0728C9.87 21.0728 8.33 21.0729 7.16 20.9329C6 20.7829 5.28999 20.5227 4.73999 20.0527C4.56999 19.9127 4.40999 19.7528 4.26999 19.5828C3.80999 19.0428 3.53999 18.3228 3.39999 17.1628C3.25999 15.9928 3.26001 14.4528 3.26001 12.3228C3.26001 10.1928 3.25999 8.65267 3.39999 7.48267C3.53999 6.32267 3.80999 5.60274 4.26999 5.06274C4.41999 4.89274 4.56999 4.73277 4.73999 4.59277ZM16.75 6.82275C16.75 6.59275 16.65 6.38268 16.47 6.24268C16.3 6.10268 16.07 6.04276 15.85 6.08276L9.35001 7.40283C9.00001 7.47283 8.75 7.78282 8.75 8.14282V15.6829L7.17999 16.2827C6.61999 16.4927 6.25 17.0328 6.25 17.6328C6.25 18.6528 7.28001 19.3529 8.23001 18.9729L9.14999 18.6028C9.80999 18.3328 10.25 17.6929 10.25 16.9729V10.4329L15.25 9.44287V14.1829L13.68 14.7827C13.12 14.9927 12.75 15.5328 12.75 16.1328C12.75 17.1528 13.78 17.8429 14.73 17.4729L15.65 17.1028C16.31 16.8328 16.75 16.1929 16.75 15.4729V6.82275Z" fill="currentColor" />
</svg>